<?xml version="1.0" encoding="UTF-8" standalone="no"?>
<!DOCTYPE svg PUBLIC "-//W3C//DTD SVG 1.1//EN" "http://www.w3.org/Graphics/SVG/1.1/DTD/svg11.dtd">
<svg width="100%" height="100%" viewBox="0 0 1000 1000" version="1.1" xmlns="http://www.w3.org/2000/svg" xmlns:xlink="http://www.w3.org/1999/xlink" xml:space="preserve" xmlns:serif="http://www.serif.com/" style="fill-rule:evenodd;clip-rule:evenodd;stroke-linecap:round;stroke-linejoin:round;stroke-miterlimit:1.5;">
    <g transform="matrix(1.25213,0,0,1.25213,-137.679,-150.199)">
        <g id="Layer1">
            <path id="Shirt" d="M417.565,651.972C417.565,651.972 414.442,657.176 408.197,659.258C401.951,661.34 361.355,676.954 352.508,679.556C343.66,682.158 311.912,688.924 299.942,691.006C287.971,693.088 272.357,694.129 267.673,694.649C262.989,695.17 266.632,695.17 251.539,703.497C236.446,711.824 233.843,718.59 229.68,726.397C225.516,734.204 215.627,749.297 210.423,764.911C205.218,780.525 196.371,794.01 190.125,808.629C183.88,823.249 177.114,832.617 172.429,841.465C167.745,850.313 171.909,849.23 161.5,877.897C151.091,906.564 146.927,899.798 141.202,908.125C135.477,916.452 120.384,970.749 117.781,978.036C115.179,985.322 150.05,1018.63 150.05,1018.63L548.936,1031.4L900.905,1030.13C900.905,1030.13 900.284,843.552 885.11,792.688C877.974,768.766 837.968,737.436 809.864,724.945C781.759,712.454 754.695,695.799 748.45,693.197C742.204,690.595 735.438,679.665 732.315,677.583C729.193,675.501 723.988,673.94 721.386,673.42C718.784,672.899 710.977,664.051 707.854,660.408C704.731,656.765 696.924,666.133 692.24,661.97C687.556,657.806 675.586,677.583 630.306,682.788C585.026,687.992 511.642,702.565 474.169,690.595C436.696,678.624 419.521,688.513 419,665.092C418.48,641.672 417.565,651.972 417.565,651.972Z" style="stroke:black;stroke-width:0.8px;"/>
            <path d="M418.145,614.21C418.145,614.21 416.821,648.327 418.854,674.891C419.839,687.756 437.384,694.915 449.845,696.098C486.418,699.57 594.787,700.844 638.294,695.724C664.339,692.66 703.742,672.118 710.883,665.38C718.024,658.641 693.142,658.414 681.14,655.293C667.477,651.741 644.987,637.116 642.3,619.78C639.027,598.653 659.66,547.208 661.498,528.531C662.855,514.744 626.767,535.338 610.924,542.811C582.959,556 525.839,595.765 493.71,607.665C470.001,616.446 435.431,614.955 418.145,614.21" style="fill:rgb(99,60,43);"/>
            <path d="M413.373,663.951C406.115,682.193 392.683,698.92 390.723,719.199C389.836,728.377 392.154,736.626 395.361,745.419C397.755,751.983 400.667,758.396 404.188,764.431C410.345,774.982 419.047,786.958 430.628,792.47C442.608,798.172 457.801,797.029 470.288,795.546C481.381,794.229 501.285,789.629 512.143,785.925C533.988,778.474 552.109,763.846 569.56,749.198C590.69,731.462 614.11,711.504 628.161,687.246C635.344,674.845 639.717,661.125 641.737,646.975C642.606,640.887 643.559,634.775 643.646,628.626C643.67,626.898 642.521,625.354 642.067,623.686C641.833,622.829 640.721,620.864 641.586,621.066C649.055,622.809 653.512,632.769 653.889,639.429C655.931,675.505 633.488,707.174 608.202,730.092C596.434,740.759 584.179,750.905 571.581,760.579C542.921,782.59 511.224,805.25 474.345,810.407C456.415,812.915 438.591,809.807 421.314,804.948C411.45,802.175 402.295,791.259 396.943,783.697C378.386,757.477 377.287,725.49 388.559,695.766C393.997,681.427 404.927,668.76 413.307,656.095C414.86,653.747 415.434,647.512 417.842,648.97C427.272,654.676 414.692,660.638 413.373,663.951Z" style="fill:rgb(213,186,61);"/>
            <path id="Head" d="M389.266,519.955C389.266,519.955 379.507,458.964 380.321,444.326C381.134,429.688 381.947,430.502 384.387,410.171C386.826,389.841 387.639,367.884 394.958,351.62C402.277,335.356 404.217,296.804 405.016,291.741C405.816,286.678 399.953,279.75 410.612,264.828C421.271,249.905 427.99,227.773 452.139,195.297C476.288,162.82 544.96,134.657 601.805,141.462C696.007,152.739 739.431,223.584 746.093,255.228C752.755,286.872 741.93,330.174 739.431,341C736.933,351.825 728.19,385.134 725.275,389.298C722.36,393.462 730.271,384.302 737.766,391.38C745.261,398.458 744.437,398.9 743.754,404.084C743.072,409.269 741.026,424.413 739.934,428.233C738.843,432.053 734.477,436.146 731.612,445.697C728.747,455.247 724.79,464.525 717.286,473.939C709.782,483.353 695.019,497.865 686.424,496.774C677.829,495.682 671.553,494.318 670.052,491.043C668.551,487.769 671.426,494.817 663.098,525.212C654.771,555.606 549.014,606.403 533.608,610.15C518.203,613.898 457.414,622.225 444.506,616.812C431.599,611.399 402.453,588.083 398.706,571.012C394.959,553.941 389.266,519.955 389.266,519.955Z" style="fill:rgb(113,67,47);stroke:black;stroke-width:0.8px;"/>
            <path id="Beard" d="M528.246,554.63C530.683,544.775 557.891,573.95 562.888,574.616C567.884,575.282 574.546,518.323 572.547,517.99C570.549,517.657 658.818,442.045 668.145,439.38C677.471,436.715 680.136,435.05 680.469,435.05C680.802,435.05 671.809,489.011 670.476,490.343C669.144,491.676 674.696,541.862 631.505,559.96C607.534,570.004 631.65,593.602 571.798,620.166C511.945,646.73 498.934,650.894 472.391,652.455C445.847,654.017 455.736,677.958 428.672,639.964C401.608,601.971 388.597,611.339 388.076,570.744C387.556,530.148 387.556,514.014 388.076,502.043C388.597,490.073 391.72,508.289 398.486,523.382C405.252,538.475 407.333,536.914 406.292,549.925C405.252,562.937 389.638,568.662 415.661,564.498C441.684,560.334 436.479,563.978 436.479,563.978C436.479,563.978 459.379,576.469 469.268,582.714C479.156,588.96 499.454,589.48 510.384,584.275C521.313,579.071 527.309,558.419 528.246,554.63Z" style="stroke:black;stroke-width:0.8px;"/>
            <path id="mustach" d="M394.116,467.536C394.116,467.536 424.128,456.365 434.301,459.614C456.862,466.819 451.367,464.15 472.419,467.817C490.95,471.045 539.884,488.552 549.41,492.438C555.936,495.1 544.526,485.483 537.901,482.365C523.399,475.539 495.838,462.491 485.846,453.831C475.853,445.17 479.453,451.138 465.796,453.803C452.139,456.467 450.513,453.289 447.516,448.292C444.518,443.296 421.221,446.17 408.897,453.165C396.572,460.16 394.116,467.536 394.116,467.536Z" style="stroke:black;stroke-width:0.8px;"/>
            <g id="Mouth">
                <path d="M404.356,464.321C404.356,464.321 424.342,457.659 433.669,458.991C442.995,460.323 437.999,459.99 445.66,462.988C453.321,465.986 462.981,464.321 463.98,464.321C464.979,464.321 534.596,484.972 541.257,489.302C547.919,493.633 552.249,489.302 542.59,503.625C532.93,517.948 504.284,543.597 477.97,544.263C451.656,544.929 432.003,539.599 423.343,535.602C414.682,531.605 408.687,523.611 408.687,518.615C408.687,513.618 411.173,483.203 407.819,477.07C405.956,473.664 404.356,464.321 404.356,464.321Z" style="fill:none;stroke:black;stroke-width:0.8px;"/>
                <path d="M404.834,464.357C404.834,464.357 405.516,471.201 413.843,473.532C422.17,475.864 540.665,498.002 545.455,498.765C545.862,498.83 544.925,499.059 544.925,499.059C544.925,499.059 446.265,479.74 423.354,474.973C417.554,473.767 420.323,487.099 421.011,488.303C425.008,495.298 428.339,508.289 441.663,511.953C454.986,515.617 473.973,515.95 481.634,514.284C489.295,512.619 502.952,514.284 512.278,510.287C521.605,506.29 531.598,508.289 535.262,505.291C538.926,502.293 545.455,498.765 545.455,498.765" style="fill:none;stroke:black;stroke-width:0.8px;"/>
            </g>
            <g>
                <path d="M471.95,332.414C471.95,332.414 454.043,370.466 445.382,378.46C436.722,386.454 422.066,395.115 421.4,403.775C420.734,412.436 423.731,421.762 430.06,424.76C436.389,427.758 443.051,426.759 443.051,426.759C443.051,426.759 442.718,432.088 449.713,435.419C456.708,438.75 460.705,440.415 467.7,436.085C474.694,431.755 474.361,427.758 481.023,427.425C487.685,427.092 489.684,424.094 496.346,427.425C503.007,430.756 502.341,437.751 508.004,439.416C513.666,441.082 526.324,437.084 527.656,424.094C528.989,411.103 528.655,408.105 523.659,397.446" style="fill:none;stroke:black;stroke-width:0.8px;"/>
                <path d="M556.073,331.271C556.073,331.271 569.663,318.213 595.511,331.004" style="fill:none;stroke:black;stroke-width:0.8px;"/>
                <path d="M566.199,332.07C566.199,332.07 599.242,327.007 620.56,353.654" style="fill:none;stroke:black;stroke-width:0.8px;"/>
                <path d="M535.821,352.589C535.821,352.589 553.408,372.041 584.319,375.772C615.23,379.502 615.497,373.107 617.895,372.841" style="fill:none;stroke:black;stroke-width:0.8px;"/>
                <path d="M469.638,319.41C469.638,319.41 429.048,287.177 411.312,312.077" style="fill:none;stroke:black;stroke-width:0.8px;"/>
                <path d="M461.11,339.193C461.11,339.193 436.382,357.1 411.994,339.023" style="fill:none;stroke:black;stroke-width:0.8px;"/>
                <path d="M460.599,346.015C460.599,346.015 448.661,357.271 436.211,358.976" style="fill:none;stroke:black;stroke-width:0.8px;"/>
                <path d="M696.346,431.87C696.346,431.87 698.744,440.131 697.945,445.461C697.145,450.79 697.678,453.188 691.017,456.919C684.355,460.65 684.621,463.847 685.687,466.779C686.753,469.71 698.744,465.18 707.271,460.117C715.799,455.054 729.922,436.667 725.658,428.939C721.395,421.212 713.667,415.882 710.736,416.149C707.804,416.415 707.804,407.355 715.799,405.49C723.793,403.624 731.787,396.962 731.787,404.69C731.787,412.418 733.919,415.616 730.455,422.011" style="fill:none;stroke:black;stroke-width:0.8px;"/>
                <path d="M541.442,420.586C541.442,420.586 546.772,446.234 556.098,454.894C565.425,463.555 570.421,471.882 570.754,477.878C571.088,483.873 578.082,480.876 570.088,496.864C562.094,512.852 560.762,516.183 554.766,521.18" style="fill:none;stroke:black;stroke-width:0.8px;"/>
            </g>
            <path id="teeth" d="M422.74,475.354C422.74,475.354 421.531,475.278 420.868,476.625C419.948,478.492 419.369,482.219 421.269,487.324C421.892,488.999 422.508,490.067 423.33,491.568C424.242,493.232 425.909,497.145 426.546,498.602C427.872,501.636 429.916,503.921 431.923,505.632C434.374,507.722 437.396,510.732 442.509,512.132C447.118,513.394 453.696,513.698 464.17,514.81C473.18,515.766 480.31,513.488 487.146,513.29C494.218,513.086 500.386,512.394 505.636,511.851C507.576,511.651 511.671,509.783 513.388,509.571C515.995,509.247 517.688,507.86 519.518,507.755C523.42,507.532 531.131,507.033 533.87,505.826C536.703,504.577 537.761,502.968 539.225,502.051C542.306,500.119 543.887,499.45 544.465,499.017C544.892,498.696 513.214,493.739 482.662,487.603C452.369,481.52 422.74,475.354 422.74,475.354Z" style="fill:white;"/>
            <g id="eyeborws-cut-final" serif:id="eyeborws cut final">
                <path d="M601.322,295.465L602.802,309.207C615.986,313.798 628.379,318.873 628.379,318.873C628.379,318.873 616.602,301.38 607.394,297.555C605.784,296.886 603.722,296.179 601.322,295.465Z" style="stroke:black;stroke-width:0.8px;"/>
                <path d="M588.61,304.667L598.463,294.649L598.864,294.757L600.299,308.369L594.923,306.566L588.61,304.667Z" style="stroke:black;stroke-width:0.8px;"/>
                <path d="M586.063,303.975L588.211,301.795L595.829,293.945C574.83,288.262 539.681,282.031 539.681,282.031L532.781,299.553C532.781,299.553 565.052,299.503 580.761,302.677L586.063,303.975Z" style="stroke:black;stroke-width:0.8px;"/>
                <path d="M404.541,281.233C404.541,281.233 417.704,271.213 427.696,273.878C437.689,276.543 476.156,288.895 477.821,289.561C479.487,290.227 471.501,275.011 468.836,271.347C466.172,267.683 431.365,263.225 427.035,258.562C422.705,253.899 414.865,259.498 411.869,263.246C402.09,275.478 404.541,281.233 404.541,281.233Z" style="stroke:black;stroke-width:0.8px;"/>
            </g>
            <g id="eyes-final" serif:id="eyes final">
                <g>
                    <path d="M465.531,322.88L465.951,323.359C468.134,325.891 469.619,327.987 469.619,329.209C469.619,330.432 470.287,331.829 470.287,331.829C470.287,331.829 465.872,333.374 459.205,334.036C462.817,331.565 465.261,327.513 465.531,322.88Z" style="fill:rgb(242,242,242);stroke:black;stroke-width:0.8px;"/>
                    <path d="M441.519,333.113C439.548,332.695 437.548,332.129 435.539,331.403C417.845,325.007 420.19,323.302 415.5,321.17C410.811,319.038 412.076,318.818 412.076,318.818C412.076,318.818 413.56,314.802 420.109,313.143C426.398,311.55 424.152,309.634 440.121,312.131C437.712,314.703 436.266,318.164 436.266,321.96C436.266,326.452 438.291,330.474 441.519,333.113Z" style="fill:rgb(242,242,242);stroke:black;stroke-width:0.8px;"/>
                    <path d="M605.11,350.625L609.046,353.271C614.503,356.682 616.209,359.581 616.891,360.434C617.573,361.286 612.798,362.139 610.751,361.969L601.363,361.01C603.729,358.452 605.143,355.026 605.143,351.272L605.11,350.625Z" style="fill:rgb(242,242,242);stroke:black;stroke-width:0.8px;"/>
                    <path d="M576.803,356.394C566.578,353.236 552.294,348.233 551.573,346.79C551.573,346.79 566.445,338.27 580.684,340.45C577.691,343.093 575.831,346.967 575.831,351.272C575.831,353.08 576.159,354.812 576.803,356.394Z" style="fill:rgb(242,242,242);stroke:black;stroke-width:0.8px;"/>
                </g>
                <g>
                    <path d="M440.121,312.131L442.201,312.444C459.352,315.234 463.315,320.184 465.531,322.88C465.255,327.512 462.816,331.564 459.205,334.036C454.255,334.548 448.064,334.573 441.519,333.113C438.291,330.474 436.266,326.452 436.266,321.96C436.266,318.164 437.712,314.703 440.121,312.131Z" style="fill:rgb(65,38,27);"/>
                    <g transform="matrix(1,0,0,1,139.565,29.3121)">
                        <path d="M441.119,311.138L443.217,311.509C454.65,314.138 460.818,318.083 465.545,321.312L465.578,321.96C465.578,325.714 464.163,329.14 461.798,331.698C456.15,331.1 449.557,330.324 446.628,329.757C445.068,329.455 441.505,328.441 437.238,327.082C436.594,325.5 436.266,323.768 436.266,321.96C436.266,317.655 438.126,313.781 441.119,311.138Z" style="fill:rgb(65,38,27);"/>
                    </g>
                </g>
            </g>
        </g>
    </g>
</svg>
